HIERARCHY
ROOT root
{
	OFFSET	0	13.1	24.9
	CHANNELS 6  Xposition Yposition Zposition Xrotation Yrotation Zrotation
	JOINT spine_1
	{
		OFFSET	0	9.99999	0
		CHANNELS 3  Xrotation Yrotation Zrotation
		JOINT spine_2
		{
			OFFSET	0	112	-10
			CHANNELS 3  Xrotation Yrotation Zrotation
			JOINT spine_3
			{
				OFFSET	0	206.5	19.3
				CHANNELS 3  Xrotation Yrotation Zrotation
				JOINT spine_4
				{
					OFFSET	0	110.4	14.6
					CHANNELS 3  Xrotation Yrotation Zrotation
					JOINT neck_1
					{
						OFFSET	0	71.8	-50.3
						CHANNELS 3  Xrotation Yrotation Zrotation
						JOINT neck_2
						{
							OFFSET	0	86.2	-25.8
							CHANNELS 3  Xrotation Yrotation Zrotation
							JOINT head_ee
							{
								OFFSET	0	179.8	-8.7
								CHANNELS 3  Xrotation Yrotation Zrotation
								End Site
								{
									OFFSET	1	0	0
								}
							}
						}
					}
					JOINT left_clavicle
					{
						OFFSET	-43.2	22.4	-70.8
						CHANNELS 3  Xrotation Yrotation Zrotation
						JOINT left_shoulder
						{
							OFFSET	-93.9	-5.79999	48.7
							CHANNELS 3  Xrotation Yrotation Zrotation
							JOINT left_elbow
							{
								OFFSET	-291.4	-30.8	15.2
								CHANNELS 3  Xrotation Yrotation Zrotation
								JOINT left_lowarm_twist
								{
									OFFSET	-110.7	-3.89999	13.6
									CHANNELS 3  Xrotation Yrotation Zrotation
									JOINT left_hand
									{
										OFFSET	-110.7	-3.89999	13.6
										CHANNELS 3  Xrotation Yrotation Zrotation
										JOINT left_ee
										{
											OFFSET	-80.8	-5.10001	12.1
											CHANNELS 3  Xrotation Yrotation Zrotation
											End Site
											{
												OFFSET	1	0	0
											}
										}
									}
								}
							}
						}
					}
					JOINT right_clavicle
					{
						OFFSET	43.2	22.4	-70.8
						CHANNELS 3  Xrotation Yrotation Zrotation
						JOINT right_shoulder
						{
							OFFSET	93.9	-5.79999	48.7
							CHANNELS 3  Xrotation Yrotation Zrotation
							JOINT right_elbow
							{
								OFFSET	291.4	-30.8	15.2
								CHANNELS 3  Xrotation Yrotation Zrotation
								JOINT right_lowarm_twist
								{
									OFFSET	110.7	-3.89999	13.6
									CHANNELS 3  Xrotation Yrotation Zrotation
									JOINT right_hand
									{
										OFFSET	110.7	-3.89999	13.6
										CHANNELS 3  Xrotation Yrotation Zrotation
										JOINT right_ee
										{
											OFFSET	80.8	-5.10001	12.1
											CHANNELS 3  Xrotation Yrotation Zrotation
											End Site
											{
												OFFSET	1	0	0
											}
										}
									}
								}
							}
						}
					}
				}
			}
		}
	}
	JOINT left_hip
	{
		OFFSET	-82.8	-127.5	0.300001
		CHANNELS 3  Xrotation Yrotation Zrotation
		JOINT left_knee
		{
			OFFSET	-28.2	-396.7	2.2
			CHANNELS 3  Xrotation Yrotation Zrotation
			JOINT left_ankle
			{
				OFFSET	-11.7	-411.3	35.4
				CHANNELS 3  Xrotation Yrotation Zrotation
				JOINT left_toes
				{
					OFFSET	0	-60	-88.6
					CHANNELS 3  Xrotation Yrotation Zrotation
					JOINT left_foot_ee
					{
						OFFSET	-22.5	-16.5	-42.2
						CHANNELS 3  Xrotation Yrotation Zrotation
						End Site
						{
							OFFSET	1	0	0
						}
					}
				}
			}
		}
	}
	JOINT right_hip
	{
		OFFSET	82.8	-127.5	0.300001
		CHANNELS 3  Xrotation Yrotation Zrotation
		JOINT right_knee
		{
			OFFSET	28.2	-396.7	2.2
			CHANNELS 3  Xrotation Yrotation Zrotation
			JOINT right_ankle
			{
				OFFSET	11.7	-411.3	35.4
				CHANNELS 3  Xrotation Yrotation Zrotation
				JOINT right_toes
				{
					OFFSET	0	-60	-88.6
					CHANNELS 3  Xrotation Yrotation Zrotation
					JOINT right_foot_ee
					{
						OFFSET	22.5	-16.5	-42.2
						CHANNELS 3  Xrotation Yrotation Zrotation
						End Site
						{
							OFFSET	1	0	0
						}
					}
				}
			}
		}
	}
}
MOTION
Frames: 12
Frame Time: 0.02
530.003 693.436 -525.943 -172.618 -77.7415 -177.237 0.920881 -0.0692576 1.01876 0.921448 -0.13394 1.01228 0.919149 -0.328276 0.966904 0.917885 -0.171459 1.00661 -7.34229 8.96308 5.0532 -7.28888 13.0668 6.88598 -0.0 0.0 -0.0 0.369204 23.1453 3.18824 1.49078 -26.7932 78.4271 1.85134 -42.5197 0.720364 -40.2909 -2.98215 4.08147 -0.229254 6.1154 1.05429 -0.0 0.0 -0.0 10.7375 8.44979 -21.4579 -9.34079 -20.0283 -68.4196 0.906118 24.1733 -0.194038 -60.5177 5.34721 -5.11701 -8.16315 -29.9155 34.28 0.0 0.0 0.0 -5.15581 16.8304 1.6717 -0.0838457 0.00344363 0.0124061 24.2195 17.2961 -3.29536 -10.3096 0.0 0.0 -0.0 0.0 -0.0 10.8557 -7.8903 6.6308 -17.2421 -0.318275 -2.61685 25.0158 29.5933 4.12708 11.4929 -0.0 -0.0 0.0 0.0 0.0 
534.669 691.289 -520.359 -172.806 -78.0231 -177.359 0.928457 -0.151285 1.01985 0.92901 -0.215871 1.00816 0.925243 -0.407749 0.946962 0.92408 -0.253085 0.999467 -7.3457 8.65589 4.85928 -7.29656 12.6333 6.63035 -0.0 0.0 -0.0 0.508516 22.8576 3.35294 1.24552 -27.5282 78.6347 1.84998 -42.4987 0.719445 -40.9074 -3.04817 4.12506 -0.261805 6.51925 1.01118 -0.0 0.0 -0.0 10.7515 8.26656 -21.4878 -8.89997 -20.5688 -68.5089 0.935512 24.8638 -0.206236 -60.3758 5.32953 -5.11273 -8.14529 -29.8773 34.2022 0.0 0.0 0.0 -5.19184 16.8269 1.30184 -0.40664 0.0165306 0.0602136 23.6555 17.1667 -3.22595 -10.0768 0.0 0.0 -0.0 0.0 -0.0 10.3452 -6.04746 6.18609 -18.4174 -0.311116 -2.79703 25.6976 29.1762 4.19852 11.354 -0.0 -0.0 0.0 0.0 0.0 
537.546 693.547 -517.421 -173.43 -78.5891 -177.566 0.899889 -0.0743115 0.754445 0.900197 -0.122167 0.748188 0.898633 -0.265603 0.710047 0.89796 -0.150134 0.743081 -7.22678 8.88233 4.20276 -7.19221 13.5103 6.01544 -0.0 0.0 -0.0 0.545384 22.6315 3.38284 1.15873 -28.1175 78.5538 1.84693 -42.4517 0.71739 -40.1943 -2.97185 4.07457 -0.0300827 7.18591 2.79804 -0.0 0.0 -0.0 10.7581 7.89124 -21.4999 -8.72272 -20.4165 -67.2109 0.899519 24.0172 -0.191344 -59.7575 5.25261 -5.09357 -7.6984 -28.8762 32.2982 0.0 0.0 0.0 -6.17043 18.0844 2.01788 1.11151 -0.0473639 -0.163986 21.4331 20.6053 -2.99045 -9.33883 0.0 0.0 -0.0 0.0 -0.0 9.71811 -3.31348 5.33259 -19.6245 -0.299918 -2.9819 25.3425 25.1396 3.96031 9.37374 -0.0 -0.0 0.0 0.0 0.0 
542.387 695.27 -516.235 -173.626 -78.6522 -178.148 0.954855 0.0158958 0.632015 0.955077 -0.0243523 0.631745 0.954848 -0.146363 0.615039 0.954323 -0.0473945 0.630435 -6.93309 8.39209 3.03872 -6.91394 13.3974 4.72884 -0.0 0.0 -0.0 0.738627 23.036 3.68768 1.01988 -27.7497 79.3501 1.81723 -41.9896 0.69743 -41.4952 -3.11156 4.16596 -0.0150525 7.90159 3.1898 -0.0 0.0 -0.0 10.6488 7.81961 -21.26 -7.97807 -21.814 -66.4725 0.894018 23.8868 -0.18911 -59.0454 5.16428 -5.07047 -7.76219 -28.9371 32.6612 0.0 0.0 0.0 -6.10601 19.1227 2.04017 -0.356657 0.0145214 0.0528064 20.4819 16.3 -2.82666 -8.80123 0.0 0.0 -0.0 0.0 -0.0 9.13395 -3.06486 5.72067 -20.3874 -0.290833 -3.0986 25.7921 24.4855 3.99128 9.02567 -0.0 -0.0 0.0 0.0 0.0 
547.691 697.372 -510.415 -174.477 -79.2178 -179.155 0.795042 0.111889 0.593308 0.795234 0.0739096 0.599225 0.796073 -0.0453239 0.602062 0.795571 0.0503276 0.601664 -7.00254 8.48096 3.28825 -6.98085 13.3912 5.00227 -0.0 0.0 -0.0 0.604989 22.9845 3.49834 1.12617 -28.6544 79.4793 1.82506 -42.1121 0.702677 -41.7473 -3.13887 4.18331 0.0831975 7.56803 3.69164 -0.0 0.0 -0.0 10.8276 7.32878 -21.6466 -8.12708 -22.1755 -66.3893 0.890974 23.8146 -0.18788 -58.6993 5.12145 -5.05885 -7.71222 -28.7299 32.5498 0.0 0.0 0.0 -6.22312 19.0516 1.71493 -0.900945 0.0360473 0.133561 19.2479 16.4347 -2.67164 -8.63014 0.0 0.0 -0.0 0.0 -0.0 8.38817 -1.1828 5.63833 -20.7491 -0.285981 -3.1539 25.8842 23.1765 3.95022 8.63629 -0.0 -0.0 0.0 0.0 0.0 
551.017 695.896 -507.547 -174.434 -79.3574 -179.405 0.788596 0.0993644 0.755428 0.788912 0.0510946 0.760219 0.789684 -0.0994291 0.755419 0.788889 0.0211195 0.761641 -6.10723 8.59474 0.914756 -6.08516 15.2309 2.55119 -0.0 0.0 -0.0 1.055 22.8995 4.11414 1.0123 -28.5713 79.1767 1.81974 -42.0289 0.699111 -41.0574 -3.06431 4.13556 0.17527 7.23343 4.155 -0.0 0.0 -0.0 10.8767 7.97356 -21.7611 -7.54966 -22.2606 -66.4822 0.880787 23.5722 -0.183786 -58.3719 5.081 -5.04762 -7.55203 -28.5731 31.6427 0.0 0.0 0.0 -6.26558 19.7653 1.38115 -0.66113 0.0266578 0.0979554 20.1644 14.3053 -2.77283 -8.42454 0.0 0.0 -0.0 0.0 -0.0 8.22787 -0.919989 5.94066 -20.6287 -0.287635 -3.13549 26.4753 23.0823 4.02146 6.67504 -0.0 -0.0 0.0 0.0 0.0 
553.995 695.34 -503.477 -173.558 -78.5193 -178.172 0.75427 0.158828 0.692545 0.754529 0.114439 0.701248 0.75603 -0.0261344 0.710043 0.755337 0.0863288 0.70526 -6.58347 8.37921 1.74185 -6.57077 14.2743 3.39468 -0.0 0.0 -0.0 1.08402 22.6752 4.13684 0.994229 -29.0624 79.3003 1.76473 -41.1561 0.662591 -41.1606 -3.07543 4.14276 -0.0541759 8.04175 2.9936 -0.0 0.0 -0.0 11.0519 8.30739 -22.1494 -7.88618 -22.1363 -66.283 0.862009 23.1229 -0.176344 -58.21 5.06101 -5.04197 -7.58319 -28.347 32.0914 0.0 0.0 0.0 -6.38824 20.0649 1.0885 0.941904 -0.0399308 -0.139022 17.9408 16.7221 -2.50597 -7.93761 0.0 0.0 -0.0 0.0 -0.0 7.69087 0.0686952 4.98051 -20.1882 -0.293354 -3.06815 26.1275 22.7315 3.96383 6.83063 -0.0 -0.0 0.0 0.0 0.0 
555.842 696.697 -503.699 -173.197 -79.4153 -178.038 0.729705 0.113637 0.818865 0.730076 0.0613019 0.824436 0.731077 -0.102891 0.820285 0.730138 0.0279441 0.82624 -6.60204 8.42264 1.13754 -6.59189 14.7958 2.80062 -0.0 0.0 -0.0 1.28607 22.7514 4.4239 0.923088 -29.5015 79.2078 1.73319 -40.645 0.641943 -40.8958 -3.04693 4.12425 -0.106669 8.28634 2.75424 -0.0 0.0 -0.0 11.0538 8.7068 -22.1561 -7.97833 -22.2313 -66.1844 0.853232 22.9119 -0.172912 -58.0831 5.04537 -5.03751 -7.50359 -28.2719 31.6364 0.0 0.0 0.0 -6.51315 20.0117 2.07268 2.05188 -0.0899174 -0.302 17.369 16.2288 -2.42843 -7.45418 0.0 0.0 -0.0 0.0 -0.0 7.57332 0.529446 5.23923 -20.7369 -0.28615 -3.15204 26.1819 22.2432 3.95209 6.1204 -0.0 -0.0 0.0 0.0 0.0 
556.048 692.247 -501.927 -172.449 -79.7776 -177.501 0.701612 0.0935351 0.844445 0.702008 0.0396133 0.848685 0.702716 -0.129364 0.839703 0.701732 0.00486996 0.849595 -6.72876 8.81963 0.990402 -6.72113 15.6522 2.74831 -0.0 0.0 -0.0 1.01207 22.4943 4.02207 1.99643 -29.6592 79.7331 1.72918 -40.5794 0.639333 -39.8211 -2.93215 4.04778 -0.180654 8.36983 2.31008 -0.0 0.0 -0.0 11.0331 10.1356 -22.1099 -6.41968 -23.9187 -65.934 0.833895 22.4447 -0.165457 -57.9251 5.0259 -5.03191 -7.54874 -28.7866 31.3951 0.0 0.0 0.0 -7.23157 19.6025 2.52157 2.20054 -0.0968525 -0.323755 18.4189 15.6925 -2.56043 -6.21844 0.0 0.0 -0.0 0.0 -0.0 7.45001 1.11795 5.2344 -20.5958 -0.28808 -3.13046 26.3889 21.0202 3.93321 4.39824 -0.0 -0.0 0.0 0.0 0.0 
559.945 690.021 -498.759 -171.684 -80.3668 -176.824 0.709524 0.0167594 0.833656 0.70991 -0.0363203 0.833033 0.709473 -0.200601 0.809336 0.708565 -0.0702689 0.830858 -6.65817 9.31429 0.28071 -6.64667 17.0788 2.12807 -0.0 0.0 -0.0 0.899692 22.0663 3.82898 1.92072 -29.6741 79.707 1.70262 -40.1418 0.622131 -38.4659 -2.78951 3.94832 -0.333577 8.56751 1.40432 -0.0 0.0 -0.0 11.0543 11.0362 -22.1497 -6.02453 -24.8932 -66.2499 0.807601 21.8043 -0.155554 -57.5571 4.9806 -5.01865 -7.62671 -29.6535 30.9875 0.0 0.0 0.0 -6.51674 19.4353 2.71924 0.489198 -0.0204531 -0.0722843 18.0398 16.569 -2.51767 -3.74143 0.0 0.0 -0.0 0.0 -0.0 6.83521 1.88099 5.09835 -20.5793 -0.288301 -3.12795 27.4829 20.117 4.03538 3.16145 -0.0 -0.0 0.0 0.0 0.0 
562.446 689.479 -495.29 -172.985 -80.2443 -178.174 0.609989 0.159955 0.934678 0.61047 0.100157 0.942961 0.6123 -0.0901891 0.943967 0.611062 0.0600178 0.946364 -7.24801 8.63923 -0.326839 -7.25186 16.3077 1.46508 -0.0 0.0 -0.0 0.838098 22.7344 3.79942 1.6604 -28.8218 79.5914 1.72105 -40.446 0.63405 -37.0006 -2.63797 3.83702 -0.507751 8.52966 0.263956 -0.0 0.0 -0.0 11.1546 11.7596 -22.3644 -6.41543 -23.604 -66.5159 0.789322 21.3557 -0.14883 -57.2085 4.93777 -5.00582 -7.64422 -29.6554 31.0998 0.0 0.0 0.0 -5.92889 18.5359 2.31414 -1.93018 0.0746478 0.286796 17.9537 17.2088 -2.51127 -1.39657 0.0 0.0 -0.0 0.0 -0.0 5.65886 5.05883 4.59188 -20.5228 -0.289057 -3.11931 30.7742 18.0976 4.34847 2.5005 -0.0 -0.0 0.0 0.0 0.0 
565.906 688.866 -491.01 -174.337 -81.7957 -179.625 0.6291 -0.000171248 1.09901 0.629769 -0.0700993 1.09677 0.628586 -0.287466 1.06075 0.627035 -0.116343 1.09283 -6.78628 9.32417 -0.947841 -6.76996 17.9951 0.918266 -0.0 0.0 -0.0 0.516617 22.207 3.30244 1.04695 -29.6321 79.5048 1.70459 -40.1744 0.6234 -36.6686 -2.60404 3.81128 -0.57979 9.40916 0.174474 -0.0 0.0 -0.0 11.1217 12.5982 -22.275 -6.07944 -25.9774 -67.0717 0.775511 21.015 -0.14384 -57.0341 4.91637 -4.99931 -7.62997 -29.7731 30.8809 0.0 0.0 0.0 -5.08927 19.3247 2.02463 -3.25774 0.120357 0.485407 17.0825 17.5155 -2.40013 -0.848986 0.0 0.0 -0.0 0.0 -0.0 5.0364 3.64008 4.38048 -20.7308 -0.286235 -3.1511 30.8408 18.6681 4.3755 1.76163 -0.0 -0.0 0.0 0.0 0.0 
